<svg width="748" height="394" viewBox="0 0 748 394" fill="none" xmlns="http://www.w3.org/2000/svg">
<path d="M334.731 350.5L334.731 391.5L296.5 391.5L296.5 350.5L334.731 350.5Z" fill="#17C600" stroke="black" stroke-width="5"/>
<path d="M311.117 365.75L311.117 373L310.239 373L310.239 366.67L310.196 366.67L308.426 367.845L308.426 366.953L310.239 365.75L311.117 365.75ZM313.202 373L313.202 372.363L315.595 369.743C315.876 369.436 316.107 369.169 316.289 368.943C316.471 368.714 316.605 368.499 316.693 368.299C316.782 368.096 316.827 367.883 316.827 367.661C316.827 367.406 316.766 367.186 316.643 366.999C316.523 366.813 316.357 366.669 316.147 366.567C315.937 366.466 315.701 366.415 315.439 366.415C315.161 366.415 314.918 366.473 314.71 366.589C314.505 366.702 314.345 366.861 314.232 367.067C314.121 367.272 314.066 367.513 314.066 367.789L313.23 367.789C313.23 367.364 313.328 366.991 313.524 366.67C313.72 366.349 313.987 366.099 314.324 365.919C314.664 365.74 315.045 365.65 315.468 365.65C315.892 365.65 316.269 365.74 316.597 365.919C316.925 366.099 317.182 366.341 317.369 366.645C317.555 366.95 317.648 367.288 317.648 367.661C317.648 367.928 317.6 368.189 317.503 368.444C317.409 368.696 317.244 368.978 317.008 369.29C316.774 369.599 316.449 369.977 316.034 370.423L314.406 372.164L314.406 372.221L317.776 372.221L317.776 373L313.202 373ZM319.465 373L322.707 366.585L322.707 366.528L318.969 366.528L318.969 365.75L323.614 365.75L323.614 366.571L320.385 373L319.465 373Z" fill="black"/>
</svg>
