<svg width="752" height="391" viewBox="0 0 752 391" fill="none" xmlns="http://www.w3.org/2000/svg">
<path d="M748.731 270.5V297.101H710.5V270.5H748.731Z" fill="#17C600" stroke="black" stroke-width="5"/>
<path d="M726.426 288.065H723.096V287.308H724.333V281.864L722.877 282.064V281.456L724.622 280.907H725.23V287.308H726.426V288.065ZM732.699 286.042C732.699 287.417 731.642 288.185 730.197 288.185C728.991 288.185 728.153 287.776 727.675 286.759L728.402 286.321C728.851 287.138 729.33 287.407 730.177 287.407C731.144 287.407 731.802 286.909 731.802 286.002C731.802 285.045 730.994 284.606 729.698 284.606L729.26 284.606V283.848L729.639 283.848C730.895 283.848 731.593 283.44 731.593 282.672C731.593 282.014 731.104 281.575 730.227 281.575C729.569 281.575 729.04 281.805 728.622 282.433L727.984 281.924C728.532 281.157 729.33 280.788 730.287 280.788C731.672 280.788 732.49 281.496 732.49 282.612C732.49 283.33 732.081 283.898 731.224 284.197V284.217C732.251 284.516 732.699 285.184 732.699 286.042ZM737.636 284.566H737.616C737.008 285.264 736.33 285.434 735.742 285.434C734.356 285.434 733.549 284.526 733.549 283.18C733.549 281.795 734.506 280.788 735.971 280.788C737.606 280.788 738.533 281.984 738.533 284.128C738.533 286.082 737.766 288.185 735.652 288.185C734.905 288.185 734.257 287.986 733.718 287.507L734.217 286.799C734.655 287.218 735.104 287.397 735.642 287.397C737.058 287.397 737.606 285.962 737.636 284.566ZM737.606 283.44C737.606 282.423 737.038 281.545 735.971 281.545C735.034 281.545 734.436 282.183 734.436 283.151C734.436 284.108 734.984 284.676 735.941 284.676C736.689 284.676 737.397 284.147 737.606 283.44Z" fill="black"/>
</svg>
