<svg width="748" height="394" viewBox="0 0 748 394" fill="none" xmlns="http://www.w3.org/2000/svg">
<path d="M172.731 350.5L172.731 391.5L120.465 391.5L94.7324 365.768L93.0049 364.041L94.6914 362.274L105.191 351.273L105.931 350.5L172.731 350.5Z" fill="#17C600" stroke="black" stroke-width="5"/>
<path d="M135.335 364.75L135.335 372L134.457 372L134.457 365.671L134.414 365.671L132.644 366.846L132.644 365.954L134.457 364.75L135.335 364.75ZM137.42 372L137.42 371.363L139.813 368.743C140.094 368.437 140.325 368.17 140.507 367.943C140.689 367.714 140.823 367.5 140.911 367.299C141 367.096 141.045 366.884 141.045 366.662C141.045 366.407 140.984 366.186 140.861 366C140.741 365.813 140.575 365.669 140.365 365.568C140.155 365.466 139.919 365.416 139.657 365.416C139.379 365.416 139.136 365.473 138.928 365.589C138.723 365.702 138.563 365.862 138.45 366.067C138.339 366.272 138.284 366.513 138.284 366.789L137.448 366.789C137.448 366.364 137.546 365.991 137.742 365.671C137.938 365.35 138.205 365.099 138.542 364.92C138.882 364.741 139.263 364.651 139.686 364.651C140.11 364.651 140.487 364.741 140.815 364.92C141.143 365.099 141.4 365.341 141.587 365.646C141.773 365.95 141.866 366.289 141.866 366.662C141.866 366.928 141.818 367.189 141.721 367.444C141.627 367.697 141.462 367.979 141.226 368.29C140.992 368.599 140.667 368.977 140.252 369.423L138.624 371.165L138.624 371.222L141.994 371.222L141.994 372L137.42 372ZM146.005 364.75L146.005 372L145.127 372L145.127 365.671L145.085 365.671L143.314 366.846L143.314 365.954L145.127 364.75L146.005 364.75Z" fill="black"/>
</svg>
