<svg width="748" height="394" viewBox="0 0 748 394" fill="none" xmlns="http://www.w3.org/2000/svg">
<path d="M450.231 350.5L450.231 391.5L398.071 391.5L397.367 390.894L382.867 378.394L382 377.646L382 350.5L450.231 350.5Z" fill="#17C600" stroke="black" stroke-width="5"/>
<path d="M411.881 364.75L411.881 372L411.003 372L411.003 365.67L410.96 365.67L409.19 366.845L409.19 365.953L411.003 364.75L411.881 364.75ZM416.416 372.099C415.948 372.099 415.532 372.019 415.166 371.858C414.802 371.698 414.513 371.475 414.299 371.189C414.086 370.901 413.97 370.567 413.952 370.187L414.844 370.187C414.863 370.421 414.943 370.623 415.085 370.793C415.226 370.96 415.411 371.09 415.64 371.182C415.869 371.274 416.123 371.32 416.401 371.32C416.713 371.32 416.989 371.266 417.23 371.157C417.471 371.049 417.659 370.898 417.796 370.704C417.933 370.511 418.002 370.287 418.002 370.032C418.002 369.765 417.936 369.53 417.803 369.327C417.671 369.122 417.478 368.961 417.223 368.846C416.968 368.73 416.656 368.672 416.288 368.672L415.708 368.672L415.708 367.893L416.288 367.893C416.576 367.893 416.829 367.841 417.046 367.738C417.265 367.634 417.436 367.487 417.559 367.299C417.684 367.11 417.747 366.888 417.747 366.633C417.747 366.388 417.692 366.174 417.584 365.992C417.475 365.81 417.322 365.669 417.124 365.567C416.928 365.466 416.697 365.415 416.43 365.415C416.18 365.415 415.944 365.461 415.722 365.553C415.502 365.643 415.323 365.774 415.184 365.946C415.044 366.116 414.969 366.321 414.957 366.562L414.107 366.562C414.122 366.182 414.236 365.849 414.451 365.564C414.666 365.276 414.946 365.052 415.293 364.891C415.643 364.731 416.026 364.65 416.444 364.65C416.892 364.65 417.277 364.741 417.598 364.923C417.919 365.102 418.166 365.34 418.338 365.635C418.51 365.93 418.596 366.248 418.596 366.59C418.596 366.999 418.489 367.347 418.274 367.635C418.062 367.923 417.773 368.122 417.407 368.233L417.407 368.29C417.865 368.365 418.222 368.56 418.48 368.874C418.737 369.185 418.865 369.571 418.865 370.032C418.865 370.426 418.758 370.78 418.543 371.094C418.331 371.405 418.041 371.651 417.672 371.83C417.304 372.009 416.885 372.099 416.416 372.099ZM422.678 372.099C422.145 372.099 421.691 371.954 421.315 371.664C420.94 371.371 420.653 370.947 420.455 370.393C420.257 369.836 420.158 369.163 420.158 368.375C420.158 367.591 420.257 366.922 420.455 366.367C420.656 365.81 420.944 365.386 421.319 365.093C421.697 364.798 422.15 364.65 422.678 364.65C423.207 364.65 423.659 364.798 424.034 365.093C424.412 365.386 424.7 365.81 424.898 366.367C425.099 366.922 425.199 367.591 425.199 368.375C425.199 369.163 425.1 369.836 424.902 370.393C424.703 370.947 424.417 371.371 424.041 371.664C423.666 371.954 423.212 372.099 422.678 372.099ZM422.678 371.32C423.207 371.32 423.618 371.065 423.91 370.556C424.203 370.046 424.349 369.319 424.349 368.375C424.349 367.747 424.282 367.212 424.148 366.771C424.015 366.33 423.824 365.993 423.574 365.762C423.326 365.531 423.028 365.415 422.678 365.415C422.154 365.415 421.745 365.674 421.45 366.19C421.155 366.705 421.007 367.433 421.007 368.375C421.007 369.003 421.073 369.536 421.206 369.975C421.338 370.414 421.528 370.748 421.776 370.977C422.026 371.206 422.327 371.32 422.678 371.32Z" fill="black"/>
</svg>
