<svg width="752" height="391" viewBox="0 0 752 391" fill="none" xmlns="http://www.w3.org/2000/svg">
<path d="M748.731 160.5V213.686H710.5V160.5H748.731Z" fill="#17C600" stroke="black" stroke-width="5"/>
<path d="M726.426 189.202L723.096 189.202V188.445H724.333V183.001L722.877 183.201V182.593L724.622 182.044H725.23V188.445L726.426 188.445V189.202ZM731.862 189.202H730.974V187.468H727.655V186.69L730.645 182.044H731.862V186.68H732.928V187.468H731.862V189.202ZM730.974 186.68V182.972H730.955L728.582 186.68H730.974ZM738.424 187.179C738.424 188.554 737.367 189.322 735.921 189.322C734.715 189.322 733.878 188.913 733.399 187.896L734.127 187.458C734.576 188.275 735.054 188.544 735.902 188.544C736.869 188.544 737.527 188.046 737.527 187.139C737.527 186.182 736.719 185.743 735.423 185.743H734.984V184.985H735.363C736.619 184.985 737.317 184.577 737.317 183.809C737.317 183.151 736.829 182.712 735.951 182.712C735.293 182.712 734.765 182.942 734.346 183.57L733.708 183.061C734.257 182.294 735.054 181.925 736.011 181.925C737.397 181.925 738.214 182.633 738.214 183.749C738.214 184.467 737.806 185.035 736.948 185.334V185.354C737.975 185.653 738.424 186.321 738.424 187.179Z" fill="black"/>
</svg>
