<svg width="748" height="391" viewBox="0 0 748 391" fill="none" xmlns="http://www.w3.org/2000/svg">
<path d="M547.147 230.501V277.04H489.808V251.286H481.5V230.501H547.147Z" fill="#17C600" stroke="#272626" stroke-width="5"/>
<path d="M510.091 255.499L506.761 255.499V254.741H507.997L507.997 249.298L506.542 249.497V248.889L508.286 248.341H508.895L508.895 254.741L510.091 254.741V255.499ZM516.434 253.096C516.434 254.661 515.447 255.618 513.921 255.618C512.825 255.618 512.087 255.25 511.559 254.253L512.306 253.824C512.665 254.562 513.174 254.841 513.901 254.841C514.928 254.841 515.526 254.163 515.526 253.106C515.526 252.079 514.948 251.451 513.991 251.451C513.323 251.451 512.895 251.75 512.585 252.329L511.838 252.189L512.147 248.341H515.915V249.138H512.825L512.655 251.252H512.675C513.144 250.853 513.602 250.704 514.191 250.704C515.586 250.704 516.434 251.631 516.434 253.096ZM519.756 255.618C518.22 255.618 517.353 254.273 517.353 251.96C517.353 249.587 518.21 248.221 519.756 248.221C521.301 248.221 522.158 249.587 522.158 251.96C522.158 254.273 521.291 255.618 519.756 255.618ZM519.756 254.861C520.733 254.861 521.251 253.844 521.251 251.96C521.251 250.036 520.723 248.979 519.756 248.979C518.789 248.979 518.26 250.036 518.26 251.96C518.26 253.844 518.789 254.861 519.756 254.861Z" fill="black"/>
</svg>
