<svg width="748" height="396" viewBox="0 0 748 396" fill="none" xmlns="http://www.w3.org/2000/svg">
<path d="M579.5 350.5L579.5 393.5L533.5 393.5L533.5 350.5L579.5 350.5Z" fill="#17C600" stroke="black" stroke-width="5"/>
<path d="M552.466 366.305L552.466 373.556L551.588 373.556L551.588 367.226L551.545 367.226L549.775 368.401L549.775 367.509L551.588 366.305L552.466 366.305ZM557.001 373.655C556.533 373.655 556.117 373.575 555.751 373.414C555.388 373.254 555.098 373.031 554.884 372.745C554.671 372.457 554.556 372.123 554.537 371.743L555.429 371.743C555.448 371.977 555.528 372.179 555.67 372.348C555.811 372.516 555.997 372.646 556.225 372.738C556.454 372.83 556.708 372.876 556.987 372.876C557.298 372.876 557.574 372.822 557.815 372.713C558.056 372.605 558.245 372.453 558.381 372.26C558.518 372.066 558.587 371.842 558.587 371.587C558.587 371.321 558.521 371.086 558.389 370.883C558.256 370.677 558.063 370.517 557.808 370.401C557.553 370.286 557.242 370.228 556.873 370.228L556.293 370.228L556.293 369.449L556.873 369.449C557.161 369.449 557.414 369.397 557.631 369.293C557.85 369.189 558.022 369.043 558.144 368.854C558.269 368.665 558.332 368.444 558.332 368.189C558.332 367.943 558.278 367.73 558.169 367.548C558.061 367.366 557.907 367.224 557.709 367.123C557.513 367.022 557.282 366.971 557.015 366.971C556.765 366.971 556.529 367.017 556.307 367.109C556.087 367.199 555.908 367.33 555.769 367.502C555.63 367.672 555.554 367.877 555.542 368.118L554.693 368.118C554.707 367.738 554.821 367.405 555.036 367.119C555.251 366.832 555.532 366.607 555.879 366.447C556.228 366.286 556.611 366.206 557.029 366.206C557.478 366.206 557.862 366.297 558.183 366.479C558.504 366.658 558.751 366.895 558.923 367.19C559.095 367.485 559.182 367.804 559.182 368.146C559.182 368.554 559.074 368.903 558.859 369.191C558.647 369.478 558.358 369.678 557.992 369.789L557.992 369.845C558.45 369.921 558.808 370.116 559.065 370.43C559.322 370.741 559.451 371.127 559.451 371.587C559.451 371.981 559.343 372.335 559.128 372.649C558.916 372.961 558.626 373.206 558.258 373.386C557.889 373.565 557.47 373.655 557.001 373.655ZM563.448 366.305L563.448 373.556L562.57 373.556L562.57 367.226L562.527 367.226L560.757 368.401L560.757 367.509L562.57 366.305L563.448 366.305Z" fill="black"/>
</svg>
