<svg width="751" height="396" viewBox="0 0 751 396" fill="none" xmlns="http://www.w3.org/2000/svg">
<path d="M747.5 351H689V393H733.5L748 377.582L747.5 351Z" fill="#17C600" stroke="black" stroke-width="5"/>
<path d="M712.698 364.75L712.698 372L711.82 372L711.82 365.67L711.778 365.67L710.007 366.845L710.007 365.953L711.82 364.75L712.698 364.75ZM717.233 372.099C716.766 372.099 716.349 372.019 715.983 371.858C715.62 371.698 715.331 371.475 715.116 371.189C714.904 370.901 714.788 370.567 714.769 370.187L715.661 370.187C715.68 370.421 715.76 370.623 715.902 370.793C716.044 370.96 716.229 371.09 716.458 371.182C716.687 371.274 716.94 371.32 717.219 371.32C717.53 371.32 717.807 371.266 718.047 371.157C718.288 371.049 718.477 370.898 718.614 370.704C718.751 370.511 718.819 370.287 718.819 370.032C718.819 369.765 718.753 369.53 718.621 369.327C718.489 369.122 718.295 368.961 718.04 368.846C717.785 368.73 717.474 368.672 717.106 368.672L716.525 368.672L716.525 367.893L717.106 367.893C717.394 367.893 717.646 367.841 717.863 367.738C718.083 367.634 718.254 367.487 718.377 367.299C718.502 367.11 718.564 366.888 718.564 366.633C718.564 366.388 718.51 366.174 718.401 365.992C718.293 365.81 718.139 365.669 717.941 365.567C717.745 365.466 717.514 365.415 717.247 365.415C716.997 365.415 716.761 365.461 716.539 365.553C716.32 365.643 716.14 365.774 716.001 365.946C715.862 366.116 715.786 366.321 715.775 366.562L714.925 366.562C714.939 366.182 715.053 365.849 715.268 365.564C715.483 365.276 715.764 365.052 716.111 364.891C716.46 364.731 716.844 364.65 717.261 364.65C717.71 364.65 718.095 364.741 718.416 364.923C718.737 365.102 718.983 365.34 719.155 365.635C719.328 365.93 719.414 366.248 719.414 366.59C719.414 366.999 719.307 367.347 719.092 367.635C718.879 367.923 718.59 368.122 718.224 368.233L718.224 368.29C718.682 368.365 719.04 368.56 719.297 368.874C719.554 369.185 719.683 369.571 719.683 370.032C719.683 370.426 719.576 370.78 719.361 371.094C719.148 371.405 718.858 371.651 718.49 371.83C718.122 372.009 717.703 372.099 717.233 372.099ZM723.538 372.099C723.241 372.094 722.944 372.038 722.646 371.929C722.349 371.821 722.077 371.638 721.832 371.38C721.586 371.121 721.389 370.77 721.241 370.329C721.092 369.885 721.018 369.328 721.018 368.658C721.018 368.016 721.078 367.447 721.198 366.952C721.319 366.454 721.493 366.035 721.722 365.695C721.951 365.353 722.227 365.093 722.551 364.916C722.876 364.739 723.243 364.65 723.652 364.65C724.058 364.65 724.419 364.732 724.735 364.895C725.054 365.055 725.313 365.279 725.514 365.567C725.714 365.855 725.844 366.187 725.903 366.562L725.039 366.562C724.959 366.236 724.803 365.966 724.572 365.751C724.341 365.537 724.034 365.429 723.652 365.429C723.09 365.429 722.647 365.674 722.324 366.162C722.003 366.651 721.841 367.336 721.839 368.219L721.896 368.219C722.028 368.018 722.185 367.847 722.366 367.706C722.551 367.562 722.754 367.451 722.975 367.373C723.197 367.295 723.432 367.256 723.68 367.256C724.095 367.256 724.475 367.36 724.82 367.568C725.164 367.773 725.441 368.057 725.648 368.421C725.856 368.782 725.96 369.196 725.96 369.663C725.96 370.112 725.86 370.523 725.659 370.895C725.458 371.266 725.176 371.561 724.813 371.781C724.452 371.998 724.027 372.104 723.538 372.099ZM723.538 371.32C723.836 371.32 724.102 371.246 724.338 371.097C724.577 370.949 724.764 370.749 724.901 370.499C725.041 370.249 725.11 369.97 725.11 369.663C725.11 369.364 725.043 369.091 724.908 368.846C724.776 368.598 724.593 368.401 724.36 368.254C724.128 368.108 723.864 368.035 723.567 368.035C723.342 368.035 723.134 368.08 722.94 368.169C722.746 368.257 722.577 368.377 722.43 368.531C722.286 368.684 722.173 368.86 722.09 369.058C722.008 369.254 721.966 369.46 721.966 369.678C721.966 369.966 722.034 370.235 722.168 370.485C722.305 370.735 722.492 370.937 722.728 371.09C722.966 371.244 723.236 371.32 723.538 371.32Z" fill="black"/>
</svg>
